<svg xmlns="http://www.w3.org/2000/svg" width="998.5" height="479.016"><path fill="#ccc" d="m883.503 476.518 3.402-63.282S998.5 390.1 998.5 323.416s-182.363-74.85-200.735-44.23c-.184.306-.366.612-.548.918-22.692 38.27-9.88 87.956 28.735 110.057a154.923 154.923 0 0 0 47.344 17.631L872 475.018"/><circle cx="780" cy="68.018" r="63" fill="#ff6884"/><path fill="#e6e6e6" d="m687.058 461.517-71.053-4.53-3.831-319.5c-.093-7.755 2.999-15.349 8.483-20.833l76.12-76.12c10.656-10.655 27.428-11.426 39.014-1.787l82.607 68.718a28.853 28.853 0 0 1 10.442 22.614l-2.838 240.281 35.904 49.866.076.106 6.083 52.723-181.007-11.538Z"/><path fill="#6c63ff" d="M699 114.926V100.11a7.1 7.1 0 0 1 7.092-7.092h20.816c3.91 0 7.092 3.182 7.092 7.092v14.816c0 3.91-3.181 7.092-7.092 7.092h-20.816a7.1 7.1 0 0 1-7.092-7.092Z"/><path fill="#3f3d56" d="M655 229.926V175.11a7.1 7.1 0 0 1 7.092-7.092h30.816c3.91 0 7.092 3.182 7.092 7.092v54.816c0 3.91-3.181 7.092-7.092 7.092h-30.816a7.1 7.1 0 0 1-7.092-7.092ZM724.657 358.237c-3.725-.132-6.729-3.154-6.839-6.88l-1.558-52.981a7.031 7.031 0 0 1 2.686-5.769 7.04 7.04 0 0 1 6.231-1.293l1.558.416a7.101 7.101 0 0 1 5.265 6.853v52.566c0 1.941-.77 3.754-2.167 5.103a7.027 7.027 0 0 1-5.176 1.985ZM630.166 356.252a7.034 7.034 0 0 1-2.166-5.103v-52.566a7.101 7.101 0 0 1 5.265-6.853l1.558-.416a7.038 7.038 0 0 1 6.23 1.293 7.032 7.032 0 0 1 2.687 5.769l-1.559 52.981c-.11 3.726-3.113 6.748-6.838 6.88a7.032 7.032 0 0 1-5.177-1.985ZM660 350.926v-54.974c0-3.881 3.04-6.995 6.92-7.091l28.008-.683c3.882-.053 7.148 2.993 7.262 6.885l1.613 55.657a7.036 7.036 0 0 1-2.002 5.148 7.034 7.034 0 0 1-5.087 2.15h-29.622c-3.91 0-7.092-3.181-7.092-7.092Z"/><path fill="#ccc" d="m825.548 388.492 21.952 39.026 2.52 43.89 17.48 1.11-6-52-36-50a18.417 18.417 0 0 0 .048 17.974Z"/><path fill="#3f3d56" d="m778.07 459.82 71.248-.974.013 1-71.248.974zM777.441 450.549l67.555-.528.008 1-67.555.528zM776.87 442.264l64.62-1.262.02 1-64.62 1.262zM777.428 434.093l62.056-2.06.034 1-62.056 2.06zM776.86 426.143l59.623-2.096.035 1-59.622 2.097zM774.429 417.019H832.5v1h-58.071zM773.058 410.663l56.436-.662.012 1-56.436.662zM771.797 404.823l54.686-1.816.034 1-54.686 1.817zM770.49 396.993l54.001-.95.018 1-54.001.95zM768.778 390.734l51.706-1.616.031 1-51.706 1.616zM767.245 383.52l51.25-.501.01 1-51.25.5z"/><path fill="#6c63ff" d="M763.5 362.426v-67.815c0-3.911 3.181-7.093 7.092-7.093h32.816c3.91 0 7.092 3.182 7.092 7.093v67.815a7.1 7.1 0 0 1-7.092 7.092h-32.816c-3.91 0-7.092-3.181-7.092-7.092Z"/><path fill="#ccc" d="m687.058 461.517-58.09-3.7-.468-.03V412.83c0-5.686 4.625-10.312 10.31-10.312h57.379c5.685 0 10.31 4.626 10.31 10.312v48.688h-19.44Z"/><path fill="#3f3d56" d="M767.5 239.426V187.61a7.1 7.1 0 0 1 7.092-7.092h10.816c3.91 0 7.092 3.182 7.092 7.092v51.816a7.1 7.1 0 0 1-7.092 7.092h-10.816c-3.91 0-7.092-3.181-7.092-7.092Z"/><path fill="#ccc" d="m778.5 466.518-3-44-9-42-2.5-11.5c-5.137-3.493-12.055.393-11.745 6.598l.245 4.902 9 42 3 44"/><path fill="#e6e6e6" d="m438.057 445.517-71.051-4.53-3.832-319.5c-.093-7.755 2.999-15.349 8.483-20.833l76.121-76.12c10.655-10.657 27.427-11.425 39.013-1.787l82.607 68.718a28.853 28.853 0 0 1 10.442 22.614l-2.838 240.281 35.904 49.866.076.106 6.083 52.723-181.008-11.538Z"/><path fill="#6c63ff" d="M450 98.926V84.11c0-3.91 3.181-7.092 7.093-7.092h20.815c3.91 0 7.092 3.182 7.092 7.092v14.816c0 3.91-3.181 7.092-7.092 7.092h-20.815c-3.912 0-7.093-3.181-7.093-7.092Z"/><path fill="#3f3d56" d="M406 213.926V159.11c0-3.91 3.181-7.092 7.093-7.092h30.815c3.91 0 7.092 3.182 7.092 7.092v54.816c0 3.91-3.182 7.092-7.092 7.092h-30.815c-3.912 0-7.093-3.181-7.093-7.092ZM470.567 277.391a6.036 6.036 0 0 0-2.306 4.955l1.557 52.982a6.107 6.107 0 0 0 5.874 5.909 5.986 5.986 0 0 0 4.446-1.705 6.04 6.04 0 0 0 1.862-4.383v-52.566a6.098 6.098 0 0 0-4.523-5.886l-1.558-.416a6.039 6.039 0 0 0-5.352 1.11ZM381.166 340.252a7.036 7.036 0 0 1-2.166-5.103v-52.566a7.101 7.101 0 0 1 5.264-6.853l1.559-.416a7.04 7.04 0 0 1 6.23 1.293 7.03 7.03 0 0 1 2.687 5.769l-1.559 52.981c-.109 3.726-3.112 6.748-6.837 6.88a7.036 7.036 0 0 1-5.178-1.985ZM411 334.926v-54.974c0-3.881 3.039-6.995 6.92-7.091l28.008-.683.175-.002c3.814 0 6.976 3.054 7.087 6.887l1.613 55.657a7.036 7.036 0 0 1-2.002 5.148 7.034 7.034 0 0 1-5.087 2.15h-29.621c-3.912 0-7.093-3.181-7.093-7.092Z"/><path fill="#ccc" d="m576.548 372.492 21.952 39.026 2.52 43.89 17.48 1.11-6-52-36-50a18.417 18.417 0 0 0 .048 17.974Z"/><path fill="#3f3d56" d="m529.07 443.82 71.248-.974.013 1-71.248.974zM528.441 434.549l67.555-.528.008 1-67.555.528zM527.87 426.264l64.62-1.262.02 1-64.62 1.262zM528.428 418.093l62.056-2.06.034 1-62.056 2.06zM527.86 410.143l59.623-2.096.035 1-59.622 2.097zM525.429 401.019H583.5v1h-58.071zM524.058 394.663l56.436-.662.012 1-56.436.662zM522.797 388.823l54.686-1.816.034 1-54.686 1.817zM521.49 380.993l54.001-.95.018 1-54.001.95zM519.778 374.734l51.706-1.616.031 1-51.706 1.616zM518.245 367.52l51.25-.501.01 1-51.25.5z"/><path fill="#6c63ff" d="M514.5 346.426v-67.815c0-3.911 3.181-7.093 7.092-7.093h32.816c3.91 0 7.092 3.182 7.092 7.093v67.815a7.1 7.1 0 0 1-7.092 7.092h-32.816c-3.91 0-7.092-3.181-7.092-7.092Z"/><path fill="#ccc" d="m438.057 445.517-58.09-3.7-.467-.03V396.83c0-5.686 4.626-10.312 10.311-10.312h57.378c5.686 0 10.31 4.626 10.31 10.312v48.688h-19.442Z"/><path fill="#3f3d56" d="M518.5 223.426V171.61a7.1 7.1 0 0 1 7.092-7.092h10.816c3.91 0 7.092 3.182 7.092 7.092v51.816c0 3.91-3.181 7.092-7.092 7.092h-10.816a7.1 7.1 0 0 1-7.092-7.092Z"/><path fill="#ccc" d="m529.5 450.518-3-44-9-42-2.5-11.5c-5.137-3.493-12.055.393-11.745 6.598l.245 4.902 9 42 3 44"/><path fill="#e6e6e6" d="m189.057 429.517-71.051-4.53-3.832-319.5c-.093-7.755 2.999-15.349 8.483-20.833l76.121-76.12c10.655-10.656 27.428-11.425 39.012-1.787l82.608 68.718a28.852 28.852 0 0 1 10.442 22.614l-2.838 240.281 35.904 49.866.075.106 6.084 52.723-181.008-11.538Z"/><path fill="#6c63ff" d="M201 82.926V68.11c0-3.91 3.181-7.092 7.093-7.092h20.815c3.91 0 7.092 3.182 7.092 7.092v14.816c0 3.91-3.182 7.092-7.092 7.092h-20.815c-3.912 0-7.093-3.181-7.093-7.092Z"/><path fill="#3f3d56" d="M157 197.926V143.11c0-3.91 3.181-7.092 7.093-7.092h30.815c3.91 0 7.092 3.182 7.092 7.092v54.816c0 3.91-3.182 7.092-7.092 7.092h-30.815c-3.912 0-7.093-3.181-7.093-7.092ZM226.657 326.237c-3.725-.132-6.729-3.154-6.839-6.88l-1.557-52.981c-.067-2.262.912-4.365 2.685-5.769s4.044-1.874 6.23-1.293l1.56.416a7.101 7.101 0 0 1 5.264 6.853v52.566c0 1.941-.77 3.754-2.166 5.103a7.03 7.03 0 0 1-5.177 1.985ZM135.394 260.213l1.558-.415c4.263-1.137 8.418 2.153 8.288 6.563l-1.558 52.982a6.592 6.592 0 0 1-13.182-.194v-52.566c0-2.987 2.008-5.6 4.894-6.37ZM162 318.926v-54.974c0-3.881 3.039-6.995 6.92-7.091l28.008-.683c3.902-.062 7.149 2.993 7.262 6.885l1.613 55.657a7.036 7.036 0 0 1-2.002 5.148 7.034 7.034 0 0 1-5.087 2.15h-29.621c-3.912 0-7.093-3.181-7.093-7.092Z"/><path fill="#ccc" d="m327.548 356.492 21.952 39.026 2.52 43.89 17.48 1.11-6-52-36-50a18.417 18.417 0 0 0 .048 17.974Z"/><path fill="#3f3d56" d="m280.07 427.82 71.248-.974.013 1-71.248.974zM279.441 418.549l67.555-.528.008 1-67.555.528zM278.87 410.264l64.62-1.262.02 1-64.62 1.262zM279.428 402.093l62.056-2.06.034 1-62.056 2.06zM278.86 394.143l59.623-2.096.035 1-59.622 2.097zM276.429 385.019H334.5v1h-58.071zM275.058 378.663l56.436-.662.012 1-56.436.662zM273.797 372.823l54.686-1.816.034 1-54.686 1.817zM272.49 364.993l54.001-.95.018 1-54.001.95zM270.778 358.734l51.706-1.616.031 1-51.706 1.616zM269.245 351.52l51.25-.501.01 1-51.25.5z"/><path fill="#6c63ff" d="M265.5 330.426v-67.815a7.1 7.1 0 0 1 7.093-7.093h32.815c3.91 0 7.092 3.182 7.092 7.093v67.815c0 3.91-3.182 7.092-7.092 7.092h-32.815c-3.912 0-7.093-3.181-7.093-7.092Z"/><path fill="#ccc" d="m189.057 429.517-58.09-3.7-.467-.03V380.83c0-5.686 4.626-10.312 10.311-10.312h57.378c5.686 0 10.31 4.626 10.31 10.312v48.688h-19.442Z"/><path fill="#3f3d56" d="M269.5 207.426V155.61c0-3.91 3.181-7.092 7.093-7.092h10.815c3.91 0 7.092 3.182 7.092 7.092v51.816c0 3.91-3.182 7.092-7.092 7.092h-10.815c-3.912 0-7.093-3.181-7.093-7.092Z"/><path fill="#ccc" d="m280.5 434.518-3-44-9-42-2.5-11.5c-5.137-3.493-12.055.393-11.745 6.598l.245 4.902 9 42 3 44M97.503 423.518l3.402-63.282S212.5 337.1 212.5 270.416s-182.363-74.85-200.735-44.23c-.184.306-.366.612-.548.918-22.692 38.27-9.88 87.955 28.735 110.057a154.923 154.923 0 0 0 47.344 17.631L86 422.018"/><path fill="#ccc" d="m25.063 420.153.129-1.996 909.88 58.76-.13 1.995z"/></svg>