<svg xmlns="http://www.w3.org/2000/svg" width="677.5" height="503.589"><path fill="#f2f2f2" d="M504.937 293.016c2.066.13 3.208-2.437 1.645-3.933l-.156-.619.062-.148c2.09-4.982 9.17-4.947 11.241.042 1.84 4.428 4.18 8.864 4.756 13.546a18.029 18.029 0 0 1-.316 6.2c4.308-9.41 6.575-19.686 6.575-30.02 0-2.597-.142-5.194-.433-7.783a71.608 71.608 0 0 0-.995-6.31c-2.305-11.278-7.298-22.02-14.5-30.99-3.462-1.893-6.349-4.851-8.093-8.397-.626-1.279-1.117-2.655-1.35-4.056.394.052 1.486-5.949 1.189-6.317.549-.833 1.532-1.247 2.131-2.06 2.983-4.044 7.092-3.338 9.237 2.157 4.582 2.313 4.626 6.148 1.815 9.837-1.79 2.347-2.035 5.522-3.605 8.035.162.206.33.407.491.613a73.593 73.593 0 0 1 7.681 12.169c-.61-4.766.291-10.508 1.827-14.21 1.748-4.217 5.025-7.769 7.91-11.415 3.466-4.379 10.574-2.468 11.184 3.084l.018.16a20.88 20.88 0 0 0-1.26.77c-2.339 1.548-1.53 5.175 1.242 5.602l.063.01a30.627 30.627 0 0 1-.808 4.58c3.702 14.315-4.29 19.53-15.701 19.764-.252.129-.497.258-.75.38a73.186 73.186 0 0 1 2.765 9.98 73.852 73.852 0 0 1 1.279 9.048c.297 3.83.271 7.68-.052 11.504l.02-.136c.82-4.211 3.106-8.145 6.426-10.87 4.946-4.063 11.933-5.559 17.268-8.824 2.569-1.572 5.86.459 5.412 3.437l-.022.142c-.795.323-1.57.698-2.319 1.118a20.91 20.91 0 0 0-1.258.77c-2.34 1.547-1.531 5.173 1.24 5.601l.063.01c.046.006.084.013.13.02a30.655 30.655 0 0 1-5.639 8.829c-2.315 12.497-12.256 13.682-22.89 10.043h-.007a75.092 75.092 0 0 1-5.044 14.726h-18.02c-.065-.2-.123-.407-.181-.607 1.666.104 3.345.007 4.986-.297-1.337-1.64-2.674-3.294-4.01-4.934a1.119 1.119 0 0 1-.085-.097c-.678-.84-1.363-1.673-2.04-2.513h-.001a29.991 29.991 0 0 1 .879-7.64v-.001ZM77.509 266.556c5.463.342 8.483-6.446 4.35-10.402l-.412-1.635.163-.392c5.525-13.175 24.25-13.084 29.729.11 4.862 11.71 11.053 23.441 12.577 35.823.683 5.466.376 11.034-.837 16.398 11.393-24.887 17.388-52.063 17.388-79.392 0-6.867-.375-13.733-1.144-20.583a189.377 189.377 0 0 0-2.63-16.688c-6.098-29.823-19.302-58.229-38.347-81.954-9.156-5.005-16.79-12.828-21.403-22.205-1.656-3.382-2.955-7.02-3.57-10.727 1.042.137 3.93-15.732 3.143-16.705 1.452-2.204 4.051-3.299 5.637-5.449 7.887-10.693 18.753-8.826 24.426 5.705 12.118 6.116 12.235 16.259 4.8 26.014-4.73 6.207-5.38 14.604-9.532 21.249.428.546.872 1.076 1.299 1.623 7.83 10.043 14.603 20.839 20.313 32.18-1.614-12.604.768-27.79 4.83-37.578 4.623-11.153 13.289-20.546 20.92-30.188 9.166-11.581 27.962-6.527 29.576 8.154l.046.426a55.21 55.21 0 0 0-3.328 2.037c-6.187 4.091-4.049 13.682 3.282 14.814l.166.025a80.995 80.995 0 0 1-2.135 12.11c9.79 37.86-11.346 51.65-41.524 52.269-.666.341-1.315.683-1.982 1.007 3.058 8.61 5.5 17.44 7.311 26.39a195.312 195.312 0 0 1 3.382 23.93c.786 10.13.718 20.31-.137 30.422l.052-.359c2.169-11.137 8.216-21.539 16.995-28.747 13.08-10.744 31.558-14.7 45.667-23.337 6.793-4.157 15.496 1.216 14.31 9.09l-.057.377c-2.1.854-4.15 1.845-6.132 2.955a55.292 55.292 0 0 0-3.328 2.036c-6.187 4.092-4.05 13.683 3.282 14.815l.166.025c.12.017.222.034.341.052-3.604 8.557-8.626 16.5-14.911 23.35-6.122 33.049-32.412 36.184-60.535 26.56h-.017a198.585 198.585 0 0 1-13.34 38.944H78.702c-.171-.53-.325-1.076-.479-1.605 4.407.273 8.848.017 13.187-.786-3.536-4.338-7.071-8.711-10.607-13.05a2.955 2.955 0 0 1-.222-.256c-1.794-2.22-3.604-4.424-5.398-6.644v-.003c-.113-6.817.704-13.61 2.323-20.204l.002-.001Z"/><path fill="#e6e6e6" d="M654.81 26.85H250v2h269.82c19.17 0 37.52 3.46 54.48 9.8h.01c2.33.87 4.62 1.79 6.89 2.77a152.05 152.05 0 0 1 15.24 7.56c3.06 1.73 6.06 3.57 8.98 5.5 6.24 4.11 12.16 8.66 17.72 13.61l.01.01c.25.21.49.42.73.65 31.69 28.49 51.62 69.81 51.62 115.78v112.63c0 .24 0 .48-.01.72-.28 8.26-5.4 15.15-12.2 13.42-11.59-2.96-23.36-5.13-35.32-5.13H71.19c-23.16 0-46.7 2.21-68.21 10.81-.72.29-1.39.11-2.05-.1-.31-.1-.62-.2-.93-.32v2.11c2.26.76 4.67 1.18 7.19 1.18h647.62c12.25 0 22.27-9.77 22.67-21.92.02-.26.02-.51.02-.77V49.54c0-12.51-10.18-22.69-22.69-22.69Z"/><path fill="#ffb6b6" d="m261.148 480.088-15.183 2.286-16.046-57.478 22.41-3.374 8.819 58.566z"/><path fill="#2f2e41" d="m264.069 495.847-46.692 7.031-.089-.59c-1.51-10.037 5.4-19.398 15.436-20.91l.001-.001 7.554-7.755 16.888 4.074 4.076-.614 2.826 18.765Z"/><path fill="#ffb6b6" d="m387.372 467.838-13.765 6.802-32.792-49.858 20.317-10.04 26.24 53.096z"/><path fill="#2f2e41" d="m394.954 481.958-42.33 20.92-.265-.535c-4.496-9.1-.766-20.121 8.333-24.619l4.834-9.688 17.326-1.264 3.695-1.826 8.407 17.012Z"/><path fill="#ffb6b6" d="m419.846 310.319.253-94.05 22.4-5.929-6.508 99.587a12.502 12.502 0 0 1 4.101 5.873c2.184 6.59-1.39 13.703-7.98 15.887-6.592 2.183-13.704-1.39-15.888-7.981-1.633-4.932-.043-10.155 3.622-13.387ZM276.895 285.54l4.115-93.958 22.624-5.005-10.592 99.236a12.503 12.503 0 0 1 3.857 6.036c1.91 6.675-1.951 13.635-8.627 15.546-6.675 1.91-13.635-1.952-15.546-8.627-1.43-4.995.374-10.148 4.17-13.227Z"/><path fill="#2f2e41" d="m339.386 319.235-58.332 19.141-34.169 11.208c14.34 25.121 13.074 102.417 11.96 108.835H229c-.288-5.766-21.424-81.19-27.68-115.353-8.14-44.456 30.056-55.727 30.056-55.727l55.17-21.965 34.588-8.716 27.332-6.888a82.939 82.939 0 0 1 3.25 6.862c.005.007.005.02.012.026 16.543 39.616-12.342 62.577-12.342 62.577Z"/><path fill="#2f2e41" d="M415.463 283.62c-.839 12.867-6.198 21.577-6.198 21.577l-76.635 60.035c15.385 13.086 52.485 77.628 55.76 86.187l-33.39 5c-3.663-6.78-61.704-71.99-67.434-81.801-7.426-12.717-8.472-25.197-6.512-36.242 4.051-22.86 21.001-39.597 21.001-39.597l42.04-38.584 7.564-3.537.056-.026 42.434-19.842c7.326 6.65 12.323 13.368 15.642 19.868 3.662 7.175 5.272 14.082 5.672 20.318.15 2.317.138 4.533 0 6.644Z"/><path fill="#6c63ff" d="m377.894 83.84-41.951-1.252-12.523 15.028c-12.043 1.401-22.63 6.07-31.308 15.027 0 0 6.893 18.445 5.01 57.606-.983 20.416 3.658 58.019 3.13 72.633-.47 13.017 1.491 18.823 1.878 18.785 1.657-.166 9.393-4.383 25.046.626 15.654 5.01 84.164-5.7 84.164-5.7l-4.643-29.99 5.79-18.835 2.35-100.134c-13.149-5.635-20.036-7.514-32.56-7.514l-4.383-16.28Z"/><path fill="#6c63ff" d="m401.87 115.379 12.341-7.745s22.541-3.757 20.663 39.447c0 0 12.351 31.125 11.6 58.267-.046 1.682-1.73 4.174-.296 4.992 3.044 1.74 1.598 3.388-.66 4.992l-28.307 6.314c-2.524-2.377-3.809-4.6-1.774-6.406-2.292-.83-2.873-1.977-.992-3.582-1.05-.197-1.53-.83-.686-2.48l-13.95-29.537 2.062-64.262ZM306.312 118.243l-13.34-5.857s-22.849-.422-14.675 42.044c0 0-6.877 29.225-3.609 55.031.073.572.601 1.27.233 1.709-1.244 1.482-1.394 2.945.75 4.375.743.496 1.003 1.838.567 2.607-1.405 2.477-.413 4.091 1.504 5.35l33.356 11.564 8.836-69.803-13.622-47.02Z"/><circle cx="352.696" cy="43.872" r="35.48" fill="#ffb6b6"/><path fill="#2f2e41" d="M385.988 67.565c-.43.805-1.683 1.89-3.373 3.095-1.923 1.368-4.405 2.883-6.868 4.33 0 0-8.924-.966-5.412-5.692a14.32 14.32 0 0 0 1.097-1.72c1.226-2.267 1.823-4.923.27-6.814-1.15-1.396-3.329-1.81-4.91-.928-1.579.872-.996.866-1.604.699-1.48-1.705-3.876-.913-3.876-.913s1.857-4.218 3.327-6.012c1.48-1.791 3-3.769 3.15-6.082.154-2.218-.972-4.303-2.059-6.23l-3.526-6.252c-.398-.701-.793-1.412-1.228-2.092-4.216-6.68-17.914.114-25.811-.175-7.895-.299-10.556-9.911-15.252-3.561-1.137-5.023-1.99-8.93-3.116-13.234-1.029-3.945 3.392-7.187 6.76-4.879.026.018.043.033.069.05a6.016 6.016 0 0 0 1.049-1.962c.157-.496.406-.946.709-1.329 1.128.799 2.259 1.587 3.378 2.383a12.12 12.12 0 0 0-1.3-3.864 4.403 4.403 0 0 1 3.137.097l1.874.766a4.828 4.828 0 0 0 1.255-1.843 4.565 4.565 0 0 1 4.728-2.93c3.345.321-1.071-.413 2.264-1.184 5.108-1.185 10.793-2.315 15.337.317C362.857 5.534 368 8.419 380 9.419c6 4 8.582 13.624 10.424 18.458 1.466 3.827 2.56 11.41 1.003 15.213-3.925 9.613-.585 15.295-5.439 24.475Z"/><path fill="#f2f2f2" d="M469.505 486.256c2.066.13 3.208-2.437 1.645-3.933l-.156-.618.062-.149c2.09-4.982 9.17-4.947 11.241.042 1.839 4.428 4.18 8.864 4.756 13.546a18.029 18.029 0 0 1-.316 6.2c4.308-9.41 6.575-19.686 6.575-30.02 0-2.597-.142-5.193-.433-7.783a71.607 71.607 0 0 0-.995-6.31c-2.305-11.278-7.298-22.019-14.5-30.99-3.462-1.893-6.349-4.851-8.093-8.397-.626-1.279-1.117-2.654-1.35-4.056.394.052 1.486-5.949 1.189-6.317.549-.833 1.532-1.247 2.131-2.06 2.983-4.044 7.091-3.338 9.236 2.157 4.583 2.313 4.627 6.148 1.815 9.837-1.788 2.347-2.034 5.522-3.604 8.035.162.206.33.407.491.613a73.591 73.591 0 0 1 7.681 12.169c-.61-4.766.29-10.508 1.827-14.21 1.748-4.217 5.025-7.769 7.91-11.415 3.466-4.379 10.573-2.468 11.184 3.084l.017.16c-.428.243-.848.5-1.258.77-2.34 1.548-1.531 5.175 1.24 5.603l.064.01a30.628 30.628 0 0 1-.808 4.579c3.702 14.315-4.29 19.53-15.701 19.764-.252.129-.498.258-.75.38a73.187 73.187 0 0 1 2.765 9.98 73.856 73.856 0 0 1 1.279 9.049c.297 3.83.271 7.68-.052 11.503l.02-.136c.82-4.21 3.106-8.144 6.426-10.87 4.946-4.063 11.933-5.559 17.268-8.824 2.569-1.572 5.86.46 5.412 3.437l-.022.142c-.795.323-1.57.698-2.319 1.118-.429.242-.848.498-1.259.77-2.34 1.547-1.53 5.174 1.241 5.601l.063.01.13.02a30.655 30.655 0 0 1-5.64 8.829c-2.314 12.497-12.255 13.683-22.89 10.043h-.006a75.092 75.092 0 0 1-5.044 14.726h-18.02c-.065-.2-.123-.406-.181-.607 1.666.104 3.345.007 4.986-.297-1.337-1.64-2.674-3.294-4.011-4.934a1.12 1.12 0 0 1-.084-.097c-.678-.84-1.363-1.673-2.041-2.513a29.99 29.99 0 0 1 .878-7.64h.001Z"/><path fill="#ccc" d="M137.954 502.4c0 .66.53 1.19 1.19 1.19h383.29c.66 0 1.19-.53 1.19-1.19 0-.66-.53-1.19-1.19-1.19h-383.29c-.66 0-1.19.53-1.19 1.19Z"/></svg>