<svg xmlns="http://www.w3.org/2000/svg" width="611.492" height="523.953"><path fill="#f2f2f2" d="M84.105 513.252c-1.217.076-1.89-1.436-.97-2.318l.093-.364-.037-.087c-1.23-2.935-5.402-2.915-6.622.024-1.083 2.61-2.462 5.222-2.802 7.98a10.62 10.62 0 0 0 .187 3.653 42.58 42.58 0 0 1-3.874-17.685c0-1.53.084-3.06.255-4.585.141-1.248.335-2.489.586-3.718 1.358-6.643 4.3-12.97 8.542-18.256 2.04-1.114 3.74-2.857 4.768-4.946.369-.753.658-1.564.795-2.39-.232.031-.875-3.504-.7-3.72-.324-.491-.903-.735-1.256-1.214-1.757-2.382-4.177-1.966-5.44 1.27-2.7 1.363-2.726 3.622-1.07 5.795 1.054 1.383 1.199 3.254 2.123 4.734-.095.121-.194.24-.289.361a43.354 43.354 0 0 0-4.525 7.169c.36-2.808-.171-6.19-1.076-8.371-1.03-2.485-2.96-4.577-4.66-6.725-2.042-2.58-6.229-1.454-6.588 1.817l-.01.095c.252.142.5.293.74.453 1.38.912.903 3.048-.73 3.3l-.037.006c.091.91.247 1.81.475 2.698-2.18 8.433 2.528 11.505 9.25 11.643.148.076.293.152.441.224a43.114 43.114 0 0 0-1.628 5.879 43.51 43.51 0 0 0-.753 5.33 41.969 41.969 0 0 0 .03 6.777l-.011-.08c-.484-2.48-1.83-4.798-3.786-6.404-2.914-2.393-7.03-3.274-10.173-5.198-1.513-.926-3.452.27-3.188 2.025l.013.084a12.183 12.183 0 0 1 2.108 1.111c1.378.912.901 3.048-.732 3.3l-.037.006-.076.012a18.059 18.059 0 0 0 3.322 5.2c1.364 7.363 7.22 8.061 13.485 5.918h.003a44.237 44.237 0 0 0 2.972 8.675H83.84c.038-.118.072-.24.106-.358-.981.061-1.97.004-2.937-.175.788-.966 1.575-1.94 2.363-2.907.019-.019.034-.038.05-.057.399-.495.802-.985 1.202-1.48a17.668 17.668 0 0 0-.518-4.501ZM535.947 513.252c1.217.076 1.89-1.436.969-2.318l-.092-.364.037-.087c1.23-2.935 5.402-2.915 6.622.024 1.083 2.61 2.462 5.222 2.802 7.98a10.62 10.62 0 0 1-.187 3.653 42.58 42.58 0 0 0 3.874-17.685c0-1.53-.084-3.06-.255-4.585a42.183 42.183 0 0 0-.586-3.718c-1.359-6.643-4.3-12.97-8.542-18.256-2.04-1.114-3.74-2.857-4.768-4.946-.369-.753-.658-1.564-.795-2.39.232.031.875-3.504.7-3.72.323-.491.902-.735 1.256-1.214 1.756-2.382 4.177-1.966 5.44 1.27 2.7 1.363 2.726 3.622 1.07 5.795-1.054 1.383-1.199 3.254-2.123 4.734.095.121.194.24.289.361a43.353 43.353 0 0 1 4.525 7.169c-.36-2.808.17-6.19 1.076-8.371 1.03-2.485 2.96-4.577 4.66-6.725 2.042-2.58 6.228-1.454 6.588 1.817l.01.095c-.252.142-.5.293-.741.453-1.378.912-.902 3.048.731 3.3l.037.006a18.04 18.04 0 0 1-.476 2.698c2.181 8.433-2.527 11.505-9.25 11.643-.148.076-.292.152-.44.224a43.12 43.12 0 0 1 1.628 5.879 43.51 43.51 0 0 1 .753 5.33 41.97 41.97 0 0 1-.03 6.777l.011-.08c.483-2.48 1.83-4.798 3.786-6.404 2.914-2.393 7.03-3.274 10.173-5.198 1.513-.926 3.452.27 3.188 2.025l-.013.084a12.185 12.185 0 0 0-2.108 1.111c-1.378.912-.902 3.048.731 3.3l.037.006.076.012a18.06 18.06 0 0 1-3.321 5.2c-1.364 7.363-7.22 8.061-13.485 5.918h-.004a44.237 44.237 0 0 1-2.971 8.675h-10.616c-.038-.118-.072-.24-.107-.358.982.061 1.971.004 2.938-.175-.788-.966-1.575-1.94-2.363-2.907-.019-.019-.034-.038-.05-.057-.399-.495-.802-.985-1.202-1.48a17.664 17.664 0 0 1 .518-4.501Z"/><path fill="#ffb6b6" d="m330.425 517.749 9.112-.001 4.335-35.148-13.449.001.002 35.148z"/><path fill="#2f2e41" d="M361.645 517.542c.284.478.433 2.02.433 2.576a3.093 3.093 0 0 1-3.092 3.092h-28.22a2.11 2.11 0 0 1-2.11-2.11v-1.174s-1.396-3.531 1.478-7.884c0 0 3.572 3.408 8.91-1.93l1.574-2.851 11.394 8.333 6.316.777c1.381.17 2.606-.026 3.317 1.17Z"/><path fill="#ffb6b6" d="m267.493 517.749 9.112-.001 4.335-35.148-13.449.001.002 35.148z"/><path fill="#2f2e41" d="M298.713 517.542c.284.478.433 2.02.433 2.576a3.093 3.093 0 0 1-3.092 3.092h-28.22a2.11 2.11 0 0 1-2.11-2.11v-1.174s-1.396-3.531 1.478-7.884c0 0 3.572 3.408 8.91-1.93l1.574-2.851 11.394 8.333 6.315.777c1.382.17 2.607-.026 3.318 1.17Z"/><path fill="#e6e6e6" d="M1.018 523.953h609.456a1.018 1.018 0 1 0 0-2.037H1.018a1.018 1.018 0 1 0 0 2.037Z"/><path fill="#2f2e41" d="m333.149 351.75 3.377 4.442s.306 2.074 5.428 18.974l2.81 127.022h-17l-22.719-101.633-23.582 103.671-14.735.87.691-117.834s-1.552-4.1-.232-8.905c5.052-18.392 4.76-13.543 4.968-19.839.263-7.982 60.994-6.768 60.994-6.768Z"/><circle cx="306.353" cy="227.172" r="17.837" fill="#feb8b8"/><path fill="#6c63ff" d="m296.763 248.365-9.87 5.455c-8.235.596-14.14 2.787-19.388 5.43l5.787 50.737-1.053 49.978s32.819 22.483 64.289-3.774v-67.908l-1.477-27.005c-.173-3.15-2.957-5.592-6.084-5.178-1.785.236-3.841.19-5.941-.51l-6.533-7.58-19.73.355Z"/><path fill="#ffb6b6" d="M352.567 206.509c.995 2.244 1.401 4.528 1.27 6.507l10.832 20.787-10.042 4.865-9.907-21.61c-1.556-1.23-2.975-3.065-3.97-5.31-2.275-5.128-1.472-10.458 1.791-11.905s7.752 1.537 10.026 6.666Z"/><path fill="#6c63ff" d="m323.026 255.59 2.988 1.367c2.742-2.947 11-2.484 15.007-2.102l17.61 1.68-8.224-25.726 12.38-4.981 14.791 28.467a12.538 12.538 0 0 1-5.135 12.554l-37.74 21.432-4.387-29.357-7.29-3.334Z"/><path fill="#ffb6b6" d="M231.763 376.255c.188-2.448.913-4.651 1.968-6.332l.317-23.437 11.148.477-1.522 23.724c.786 1.821 1.166 4.11.978 6.558-.43 5.593-3.663 9.906-7.222 9.632s-6.097-5.029-5.667-10.622Z"/><path fill="#6c63ff" d="m275.766 265.66-5.123-7.78s-8.354 1.594-12.794 7.893-21.22 44.934-21.22 44.934l-3.222 43.614 12.481-2.57 6.023-33.077 19.364-26.462 4.491-26.552Z"/><path fill="#2f2e41" d="M324.19 229.538c.67-3.4-9.669-8.349-9.65-8.343 1.604.512-.92 3.453-2.568 3.106 0 0-2.423 1.232-1.103 2.292-4.55-.39-10.629-4.714-15.179-5.104-1.83-.16-2.539 4.253-3.689 5.683-1.74 2.19-3.485-2.165-2.841 3.637h-.26c-.95-2.29-1.9-4.62-2.21-7.08-.3-2.46.12-5.11 1.69-7.03.52-.65-1.523-2.79-.973-3.41 1.75-2.01 5.143-3.11 6.703-5.26 2.065-2.848 4.414-.838 8.714-3.233 1.125-.627 3.08-.852 4.326-.527l2.91.76c-.567.851.135 1.973 1.148 1.836l3.792-.516c1.43.46 2.79 1.14 3.43 2.45.39.78.46 1.69.76 2.51.55 1.51 1.85 2.6 2.89 3.82 2.796.814 2.946 2.904 2.946 6.41 2.605 1.46-.113 4.729-.836 8Z"/><path fill="#e6e6e6" d="M32.306 64.67a5.114 5.114 0 0 1 5.38-3.368c.962.108 1.922.194 2.887.137 24.07-1.416 53.882 12.366 85.618 31.24C97.138 69.17 70.548 48.375 39.274 69.745c-2.234 1.527-5.398.988-6.698-1.385a4.402 4.402 0 0 1-.4-3.275c.038-.139.08-.278.13-.416ZM192.839 8.282a5.114 5.114 0 0 1 2.139 5.815l-.075.242c-.662 2.153-2.106 3.962-4.018 5.152-27.37 17.039 4.319 38.844-46.334 74.04 24.528-26.247 44.703-87.03 47.768-85.54.177.086.35.183.52.291ZM234.79 141.519a5.115 5.115 0 0 1-5.52 2.814l-.25-.045c-2.215-.403-4.183-1.621-5.592-3.379-20.166-25.153-38.056 8.9-79.016-37.218 28.973 21.24 91.72 34.057 90.605 37.277-.064.186-.14.37-.227.55v.001Z"/><path fill="#e6e6e6" d="M197.93 139.947c-1.05.583-2.745.501-4.112-.13l-.155-.072c-1.373-.634-2.435-1.524-3.036-2.497-8.595-13.927-26.443-4.89-44.803-31.289 15.051 14.354 53.665 32.849 52.353 33.829-.075.056-.158.11-.248.16ZM206.212 84.398c-.26 1.173-1.443 2.387-2.823 2.992l-.156.068c-1.385.608-2.755.814-3.882.618-16.125-2.795-21.19 16.559-53.125 12.806 20.724-1.754 60.167-18.407 60.031-16.775a2.188 2.188 0 0 1-.045.291ZM44.832 157.144a5.115 5.115 0 0 1 .842-6.138l.18-.179c1.596-1.59 3.72-2.508 5.967-2.661 32.164-2.191 14.427-36.323 75.676-43.611-33.981 11.654-80.336 55.844-82.343 53.09a5.174 5.174 0 0 1-.322-.501ZM174.185 156.776a3.03 3.03 0 0 1-3.733-.289l-.114-.104c-1.02-.928-1.657-2.207-1.836-3.592-2.569-19.821-22.453-7.556-29.222-45.181 8.343 20.587 36.777 47.602 35.194 48.948-.091.077-.188.15-.29.218Z"/><path fill="#6c63ff" d="M138.16 189.377a3.921 3.921 0 0 1-3.816-2.891l-.052-.19c-.462-1.687-.271-3.48.483-5.07 10.797-22.736-18.978-23.542-.52-68.014-5.11 27.547 6.988 75.808 4.366 76.135a3.99 3.99 0 0 1-.46.03ZM72.195 158.306a3.921 3.921 0 0 1-.207-4.784l.113-.16c1.004-1.433 2.507-2.43 4.212-2.863 24.396-6.19 6.023-29.634 52.045-43.789-24.474 13.638-53.921 53.742-55.845 51.931a3.993 3.993 0 0 1-.318-.335Z"/><path fill="#6c63ff" d="M86.998 137.952c-.743-.694-.763-1.738-.127-2.539l.072-.09c.639-.804 1.592-1.398 2.673-1.698 15.47-4.304 3.852-16.03 33.037-25.467-15.527 8.272-34.237 30.844-35.455 29.96a2.117 2.117 0 0 1-.2-.166Z"/><path fill="#e6e6e6" d="M108.632 152.785c-.94-.388-1.325-1.359-1.01-2.332l.035-.11c.315-.977 1-1.868 1.906-2.53 12.97-9.465-2.028-16.36 21.98-35.452-11.63 13.202-21.214 40.909-22.665 40.508a2.115 2.115 0 0 1-.246-.084Z"/><path fill="#6c63ff" d="m45.34 87.024 2.359 7.261h7.635l-6.177 4.487 2.36 7.261-6.177-4.487-6.176 4.487 2.359-7.261-6.177-4.487h7.635l2.359-7.261z"/><path fill="#e6e6e6" d="m150.548 0 2.359 7.261h7.635l-6.177 4.487 2.36 7.261-6.177-4.487-6.176 4.487 2.359-7.261-6.177-4.487h7.635L150.548 0z"/><path fill="#6c63ff" d="m206.399 77.932 2.359 7.261h7.635l-6.176 4.487 2.359 7.261-6.177-4.487-6.176 4.487 2.359-7.261-6.176-4.487h7.634l2.359-7.261zM93.398 157.162l2.359 7.261h7.635l-6.177 4.488 2.36 7.261-6.177-4.488-6.176 4.488 2.359-7.261-6.177-4.488h7.635l2.359-7.261zM136.261 77.932l2.359 7.261h7.634l-6.176 4.487 2.359 7.261-6.176-4.487-6.177 4.487 2.359-7.261-6.176-4.487h7.634l2.36-7.261z"/><path fill="#e6e6e6" d="m195.204 0 2.359 7.261h7.634l-6.176 4.487 2.359 7.261-6.176-4.487-6.177 4.487 2.359-7.261-6.176-4.487h7.634L195.204 0zM41.339 143.502l2.992 7.024 7.604-.675-5.755 5.016 2.991 7.024-6.549-3.924-5.755 5.016 1.708-7.441-6.549-3.924 7.605-.675 1.708-7.441z"/><path fill="#6c63ff" d="M106.65 9.354c1.377-.678 2.924-.22 3.8 1.008l.1.138c.88 1.233 1.298 2.792 1.225 4.387-1.05 22.824 21.778 12.621 21.74 56.294-4.77-24.743-29.09-60.405-27.205-61.634.109-.07.222-.135.34-.193Z"/><path fill="#e6e6e6" d="M86.74 43.185c.611-.762 1.613-.867 2.43-.329l.093.06c.822.54 1.464 1.397 1.835 2.398 5.309 14.329 15.696 2.334 26.98 29.258-9.128-14.056-32.24-29.954-31.481-31.183a2.04 2.04 0 0 1 .144-.204ZM69.168 84.835c.084-.972.858-1.617 1.837-1.624l.11-.001c.983-.008 1.993.346 2.858.972 12.38 8.959 14.345-6.787 38.693 9.32-15.402-6.61-43.45-6.974-43.504-8.417a2.039 2.039 0 0 1 .006-.25ZM414.878 124.763a3.327 3.327 0 0 1 3.501-2.19c.625.07 1.25.125 1.878.088 15.66-.92 35.057 8.046 55.706 20.326-18.902-15.295-36.203-28.826-56.551-14.921-1.454.993-3.513.642-4.358-.902a2.864 2.864 0 0 1-.26-2.13c.024-.09.052-.181.084-.27ZM519.327 88.076a3.328 3.328 0 0 1 1.392 3.783l-.049.157c-.431 1.401-1.37 2.578-2.614 3.352-17.808 11.086 2.81 25.274-30.147 48.174 15.959-17.078 29.086-56.625 31.08-55.656.115.056.227.12.338.19ZM546.622 174.764a3.328 3.328 0 0 1-3.592 1.831l-.162-.03c-1.442-.261-2.722-1.054-3.638-2.197-13.122-16.366-24.761 5.79-51.412-24.216 18.851 13.82 59.677 22.159 58.951 24.254-.041.12-.09.24-.147.358Z"/><path fill="#e6e6e6" d="M522.639 173.742c-.683.38-1.786.326-2.675-.085l-.1-.047c-.894-.412-1.585-.991-1.976-1.624-5.593-9.062-17.205-3.182-29.15-20.358 9.792 9.34 34.916 21.372 34.062 22.01-.049.037-.103.071-.161.104ZM528.028 137.6c-.169.763-.94 1.553-1.837 1.946l-.101.045c-.901.395-1.793.529-2.526.402-10.492-1.82-13.787 10.773-34.566 8.332 13.484-1.142 39.148-11.977 39.06-10.915a1.424 1.424 0 0 1-.03.19ZM423.028 184.93a3.328 3.328 0 0 1 .548-3.993l.117-.116c1.038-1.035 2.42-1.632 3.882-1.732 20.928-1.426 9.387-23.633 49.238-28.375-22.11 7.583-52.27 36.335-53.575 34.543a3.365 3.365 0 0 1-.21-.326ZM507.19 184.691a1.971 1.971 0 0 1-2.429-.188l-.074-.068a3.806 3.806 0 0 1-1.195-2.337c-1.67-12.896-14.609-4.916-19.013-29.396 5.428 13.395 23.929 30.972 22.899 31.847-.06.05-.122.098-.188.142Z"/><path fill="#6c63ff" d="M483.751 205.903a2.551 2.551 0 0 1-2.483-1.882l-.034-.123a4.757 4.757 0 0 1 .314-3.298c7.025-14.793-12.348-15.318-.338-44.253-3.325 17.923 4.547 49.324 2.84 49.536a2.598 2.598 0 0 1-.299.02ZM440.832 185.687a2.551 2.551 0 0 1-.136-3.113l.074-.105a4.757 4.757 0 0 1 2.74-1.862c15.874-4.027 3.92-19.28 33.863-28.49-15.924 8.873-35.083 34.966-36.335 33.788a2.597 2.597 0 0 1-.206-.218Z"/><path fill="#6c63ff" d="M450.463 172.444c-.484-.452-.497-1.131-.083-1.652l.047-.059c.415-.523 1.036-.91 1.74-1.105 10.064-2.8 2.505-10.429 21.494-16.57-10.102 5.383-22.276 20.069-23.068 19.493a1.377 1.377 0 0 1-.13-.107Z"/><path fill="#e6e6e6" d="M464.539 182.095c-.611-.253-.862-.885-.658-1.518l.023-.071c.205-.636.65-1.216 1.24-1.646 8.44-6.159-1.319-10.645 14.3-23.067-7.566 8.59-13.801 26.617-14.745 26.356a1.377 1.377 0 0 1-.16-.054Z"/><path fill="#6c63ff" d="m423.359 139.308 1.535 4.724h4.967l-4.019 2.92 1.535 4.724-4.018-2.92-4.019 2.92 1.535-4.724-4.019-2.92h4.968l1.535-4.724z"/><path fill="#e6e6e6" d="m491.811 82.687 1.535 4.724h4.967l-4.018 2.92 1.535 4.724-4.019-2.92-4.019 2.92 1.535-4.724-4.018-2.92h4.967l1.535-4.724z"/><path fill="#6c63ff" d="m528.15 133.392 1.535 4.724h4.967l-4.019 2.92 1.535 4.724-4.018-2.919-4.019 2.919 1.535-4.724-4.019-2.92h4.968l1.535-4.724zM454.627 184.943l1.535 4.724h4.967l-4.018 2.92 1.535 4.724-4.019-2.92-4.019 2.92 1.535-4.724-4.018-2.92h4.967l1.535-4.724zM482.515 133.392l1.535 4.724h4.967l-4.018 2.92 1.535 4.724-4.019-2.919-4.019 2.919 1.535-4.724-4.018-2.92h4.967l1.535-4.724z"/><path fill="#e6e6e6" d="m520.865 82.687 1.535 4.724h4.968l-4.019 2.92 1.535 4.724-4.019-2.92-4.018 2.92 1.535-4.724-4.019-2.92h4.967l1.535-4.724zM420.755 176.055l1.947 4.57 4.948-.439-3.745 3.263 1.946 4.57-4.261-2.553-3.745 3.264 1.112-4.842-4.261-2.553 4.948-.439 1.111-4.841z"/><path fill="#6c63ff" d="M463.249 88.773c.896-.441 1.903-.144 2.473.655l.064.09c.573.803.845 1.817.797 2.855-.683 14.85 14.17 8.212 14.146 36.627-3.104-16.099-18.928-39.302-17.701-40.101a2.12 2.12 0 0 1 .22-.126Z"/><path fill="#e6e6e6" d="M450.295 110.785c.397-.496 1.05-.564 1.581-.214l.06.04c.535.35.953.907 1.194 1.559 3.454 9.323 10.213 1.518 17.554 19.036-5.938-9.145-20.976-19.489-20.482-20.288.028-.046.06-.09.093-.133ZM438.862 137.884c.054-.633.558-1.052 1.195-1.057h.072c.64-.006 1.297.225 1.86.632 8.054 5.829 9.332-4.416 25.174 6.063-10.02-4.3-28.27-4.537-28.305-5.476-.002-.054 0-.108.004-.162Z"/></svg>