<svg xmlns="http://www.w3.org/2000/svg" width="524.926" height="493.293"><g fill="#3f3d56"><path d="m407.32 104.9 8.23 3.898c-3.375-4.71-6.283-12.068-7.84-17.922-2.637 5.453-6.887 12.126-11.094 16.112l8.698-2.238c-5.36 26.268-25.52 45.126-48.605 45.126l-.326.949c24.113 0 45.465-18.597 50.938-45.925ZM382.442 64.876h52c2.205 0 4 1.794 4 4 0 2.205-1.795 4-4 4h-52c-2.206 0-4-1.795-4-4 0-2.206 1.794-4 4-4Z"/></g><path fill="#ffb6b6" d="M264.923 154.721c6.2-5.123 13.869-6.076 17.129-2.13 3.26 3.946.875 11.297-5.328 16.42a20.128 20.128 0 0 1-8.493 4.27l-26.545 21.375-9.765-12.67 27.205-19.727a20.13 20.13 0 0 1 5.797-7.538Z"/><path fill="#e6e6e6" d="M111.501 202.949c-.013-.946-.004-9.191 6.1-14.403 7.012-5.987 16.907-3.563 20.378-2.714 8.017 1.964 8.674 5.403 16.203 8.936 14.085 6.611-3.563 3.228 4.818 1.108 2.901-.734 44.638-3.629 55.027-10.023C234.233 173.417 248 165.876 248 165.876l9 18s-13.014 18.095-31.33 31.501c-18.788 13.751-28.182 20.627-42.459 23.283-1.23.229-31.466 5.392-55.819-12.803-5.554-4.15-15.732-11.754-15.89-22.908Z"/><circle cx="284.2" cy="158.334" r="25.133" fill="#6c63ff" opacity=".2"/><circle cx="308.346" cy="169.52" r="25.133" fill="#fff"/><circle cx="308.346" cy="169.52" r="25.133" fill="#6c63ff" opacity=".5"/><circle cx="333.833" cy="181.328" r="25.133" fill="#fff"/><circle cx="333.833" cy="181.328" r="25.133" fill="#6c63ff" opacity=".8"/><circle cx="356.638" cy="191.893" r="25.133" fill="#6c63ff"/><g fill="#f2f2f2"><path d="M166.208 211.497c-1.335-2.25-7.11.16-8.171-1.883-1.058-2.035 4.307-5.136 7.372-12.22.553-1.278 4.036-9.328 1.458-11.812-4.888-4.709-27.255 14.722-35.082 8.363-1.718-1.395-2.918-4.18-8.117-8.704-2.069-1.8-3.32-2.612-4.53-2.31-1.717.43-1.853 2.728-3.695 7.248-2.762 6.777-4.395 6.368-6.004 11.776-1.195 4.014-.922 6.348-2.328 6.803-1.989.643-3.82-3.615-6.34-3.233-2.573.389-4.129 5.346-4.62 9.058-.922 6.966 1.636 11.562 3.054 16.396 1.541 5.252 2.455 13.24-1.103 24.548l-35.219 99.229c7.776-20.362 30.289-76.178 39.749-96.92 2.73-5.988 5.746-12.06 11.937-14.458 5.961-2.308 14.147-.93 24.584-3.444 1.219-.294 4.601-1.154 5.027-3.144.352-1.645-1.637-2.563-1.332-4.103.41-2.066 4.323-2.092 9.13-4.476 3.391-1.68 5.503-3.68 7.32-5.4.547-.517 8.687-8.317 6.91-11.314Z"/><path d="M27.647 263.736c-1.49.006-1.973 3.535-3.282 3.467-1.304-.068-1.278-3.596-3.87-7.145-.468-.64-3.415-4.672-5.378-4.123-3.721 1.04-.638 17.625-6.017 19.632-1.18.44-2.894.225-6.614 1.472-1.48.496-2.24.875-2.44 1.557-.286.966.803 1.696 2.49 3.904 2.53 3.311 1.857 3.995 4.047 6.345 1.626 1.745 2.85 2.284 2.668 3.105-.258 1.162-2.877.832-3.417 2.18-.551 1.375 1.433 3.568 3.113 4.88 3.153 2.463 6.147 2.533 8.929 3.232 3.022.76 7.206 2.615 11.73 7.624l38.54 45.917c-7.75-9.691-28.65-36.846-36.1-47.473-2.15-3.068-4.262-6.3-3.652-10.031.588-3.592 3.626-7.212 5.403-13.06.208-.683.761-2.591-.092-3.374-.706-.648-1.73.064-2.398-.53-.896-.798.22-2.725.437-5.773.153-2.149-.218-3.762-.538-5.15-.097-.418-1.576-6.664-3.56-6.656ZM57.368 270.408l-.898-8.013.41-.607c1.898-2.81 2.865-5.552 2.877-8.156.002-.414-.018-.828-.037-1.25-.078-1.67-.174-3.748.909-6.17.607-1.35 2.314-4.477 4.879-4.09.69.097 1.213.414 1.61.786.057-.093.117-.186.181-.287.799-1.218 1.431-1.74 2.04-2.244.469-.387.953-.785 1.71-1.73.334-.413.593-.777.811-1.082.664-.925 1.53-2.028 3.059-2.008 1.632.077 2.487 1.427 3.054 2.321a19.312 19.312 0 0 1 1.774 3.505c.11.279.236.592.3.689.526.774 4.803.05 6.414-.213 3.62-.603 6.752-1.126 8.042 1.157.925 1.633.238 3.791-2.103 6.589-.73.87-1.505 1.532-2.193 2.05.57.34 1.08.863 1.288 1.683.487 1.942-1.182 3.888-4.96 5.792-.938.476-2.201 1.11-3.971 1.416a15.6 15.6 0 0 1-2.227.197c-.013.372-.1.774-.327 1.188-.663 1.219-2.044 1.799-4.126 1.66-2.29-.12-4.176-.557-5.84-.94-1.453-.333-2.704-.616-3.687-.55-1.822.147-3.227 1.606-4.875 3.498l-4.114 4.809ZM61.531 222.701l-7.522 2.901-.692-.243c-3.198-1.123-6.097-1.363-8.619-.713-.4.103-.796.226-1.199.352-1.597.499-3.582 1.12-6.2.686-1.46-.245-4.916-1.103-5.193-3.682a2.905 2.905 0 0 1 .352-1.756l-.323-.103c-1.382-.464-2.047-.943-2.689-1.405-.493-.355-1-.722-2.106-1.216-.485-.216-.902-.375-1.254-.509-1.062-.407-2.349-.966-2.718-2.449-.339-1.599.75-2.768 1.471-3.543a19.313 19.313 0 0 1 2.94-2.605c.242-.178.513-.379.59-.465.616-.705-1.169-4.659-1.832-6.15-1.502-3.349-2.802-6.246-.92-8.073 1.344-1.308 3.606-1.192 6.906.363a13.082 13.082 0 0 1 2.54 1.602c.184-.638.56-1.265 1.3-1.673 1.756-.964 4.062.157 6.861 3.328.698.787 1.633 1.848 2.377 3.483.35.77.574 1.487.756 2.103a2.637 2.637 0 0 1 1.232.015c1.347.333 2.259 1.522 2.652 3.57.465 2.247.52 4.182.572 5.888.046 1.49.09 2.772.404 3.706.604 1.725 2.371 2.714 4.62 3.828l5.694 2.76ZM57.368 199.096l-.898-8.012.41-.607c1.898-2.81 2.865-5.552 2.877-8.156.002-.414-.018-.828-.037-1.25-.078-1.671-.174-3.749.909-6.17.607-1.35 2.314-4.477 4.879-4.09.69.097 1.213.414 1.61.785.057-.092.117-.185.181-.286.799-1.219 1.431-1.74 2.04-2.244.469-.387.953-.785 1.71-1.73.334-.413.593-.777.811-1.082.664-.925 1.53-2.028 3.059-2.008 1.632.077 2.487 1.427 3.054 2.32a19.312 19.312 0 0 1 1.774 3.506c.11.279.236.592.3.689.526.774 4.803.05 6.414-.213 3.62-.604 6.752-1.126 8.042 1.157.925 1.632.238 3.791-2.103 6.588-.73.871-1.505 1.533-2.193 2.051.57.34 1.08.863 1.288 1.683.487 1.942-1.182 3.888-4.96 5.792-.938.476-2.201 1.11-3.971 1.416a15.6 15.6 0 0 1-2.227.197c-.013.371-.1.774-.327 1.188-.663 1.219-2.044 1.799-4.126 1.66-2.29-.12-4.176-.558-5.84-.94-1.453-.333-2.704-.616-3.687-.55-1.822.147-3.227 1.606-4.875 3.497l-4.114 4.81Z"/><path d="m65.566 354.625-1.68-1.052-.406-1.938.407 1.938-1.958.224c-.031-.182-.137-.6-.298-1.253-.876-3.583-3.548-14.485-5.776-31.655a322.747 322.747 0 0 1-2.617-36.63c-.182-12.343.402-21.686.87-29.195.354-5.664.784-11.058 1.205-16.312 1.122-14.036 2.18-27.295 1.393-41.973-.174-3.277-.54-10.098-4.525-17.356-2.311-4.21-5.495-7.946-9.465-11.103l2.468-3.103c4.382 3.49 7.905 7.63 10.472 12.303 4.418 8.047 4.816 15.48 5.008 19.05.8 14.938-.269 28.324-1.403 42.496-.417 5.234-.847 10.604-1.199 16.245-.464 7.44-1.043 16.702-.863 28.885a318.799 318.799 0 0 0 2.583 36.182c2.201 16.953 4.834 27.693 5.699 31.222.46 1.884.557 2.279.085 3.025Z"/><path d="M35.45 174.614a7.06 7.06 0 0 1-.493-.015c-3.374-.182-6.498-2.202-9.287-6-1.308-1.788-1.977-3.827-3.312-7.893-.207-.627-1.213-3.807-1.824-8.183-.4-2.86-.35-4.055.217-5.11.628-1.177 1.646-1.997 2.791-2.55-.05-.38-.01-.77.155-1.169.675-1.652 2.47-1.435 3.441-1.33.491.061 1.105.142 1.766.108 1.041-.05 1.6-.36 2.447-.824.81-.445 1.819-.999 3.314-1.304 2.948-.615 5.418.22 6.233.495 4.285 1.428 6.397 4.759 8.842 8.616.488.774 2.16 3.59 3.265 7.451.797 2.786.685 4.024.445 4.945-.487 1.892-1.638 2.975-4.561 5.366-3.053 2.503-4.585 3.757-5.9 4.519-3.062 1.768-4.985 2.878-7.539 2.878Z"/></g><path fill="#ccc" d="M.256 352.886c0 .66.53 1.19 1.19 1.19h522.29c.66 0 1.19-.53 1.19-1.19 0-.66-.53-1.19-1.19-1.19H1.446c-.66 0-1.19.53-1.19 1.19Z"/><circle cx="139.42" cy="125.818" r="31.352" fill="#ffb6b6"/><path fill="#ffb6b6" d="m384.959 336.455-32.288-33.051-16.668 17.387 24.056 31.69 23.862 2.729 1.038-18.755z"/><path fill="#2f2e41" d="M200.59 274.477c1.889.157 7.89 1.36 13.627-1.797 3.914-2.154 5.922-5.356 6.6-6.375 8.413-12.635 40.704-32.338 69.684-33.55 6.563-.275 10.883.485 14.809 2.532 5.567 2.902 7.79 7.059 14.855 16.797 3.864 5.327 8.14 10.346 12.052 15.638 22.897 30.987 31.578 33.42 30.69 43.354-.984 11.022-12.871 21.48-20.772 20.272-3.235-.494-4.488-2.744-8.811-7.299-12.675-13.354-17.92-10.887-26.943-21.116-10.536-11.942-9.157-21.844-14.654-22.227-5.097-.354-7.264 8.093-18.146 19.315-4.98 5.134-8.526 7.49-19.329 14.984-42.07 29.186-42.741 31.237-51.231 33.565-3.715 1.018-30.08 8.247-39.471-3.256-14.697-18 20.023-72.25 37.04-70.837ZM375.088 343.924c2.375-1.066 5.151-2.313 6.045-5.18.604-1.94.256-4.332-.993-5.985-1.442-1.908-3.576-2.159-3.49-2.496.132-.514 5.178-.313 10.717 1.645 1.045.37 5.78 2.1 11.804 6.802 4.826 3.768 4.176 4.523 7.203 6.695 9.29 6.669 18.002 1.413 23.029 7.667 1.94 2.414 2.767 5.84 1.95 8.611-1.639 5.565-9.612 7.48-13.97 8.468-10.494 2.381-18.437.437-26.731-.96-28.208-4.753-44.056-.424-46.177-6.96-.402-1.236.25-1.13 2.425-10.207 2.147-8.958 2.076-11.418 3.905-12.135 2.752-1.08 4.6 3.832 11.532 5.513 6.143 1.49 11.212-.787 12.75-1.478Z"/><path fill="#ffb6b6" d="m327.555 444.578-8.157-45.479-23.555 5.027 2.11 39.73 18.212 15.657 11.39-14.935z"/><path fill="#2f2e41" d="M209.802 289.764c1.475 1.19 5.766 5.555 12.284 6.165 4.45.416 7.909-1.106 9.042-1.568 14.056-5.731 51.84-3.902 76.5 11.368 5.584 3.458 8.732 6.513 10.831 10.411 2.978 5.528 2.482 10.216 2.86 22.24.206 6.579.926 13.132 1.19 19.708 1.547 38.498 7.364 45.385 1.051 53.107-7.004 8.568-22.712 10.545-28.571 5.11-2.4-2.226-2.173-4.791-3.193-10.988-2.989-18.167-8.713-19.07-10.437-32.602-2.012-15.798 4.69-23.216.356-26.62-4.018-3.155-10.554 2.618-25.86 5.792-7.004 1.453-11.261 1.41-24.409 1.546-51.2.526-52.907 1.846-61.239-.996-3.645-1.243-29.52-10.067-30.832-24.859-2.053-23.147 57.14-48.54 70.427-37.814ZM315.193 445.215c2.564.451 5.562.979 7.911-.892 1.59-1.266 2.645-3.44 2.54-5.51-.123-2.388-1.747-3.794-1.486-4.025.397-.351 4.46 2.649 7.943 7.38.658.892 3.604 4.983 5.948 12.256 1.878 5.828.916 6.088 2.2 9.585 3.942 10.734 14.103 11.278 14.75 19.276.25 3.086-.99 6.386-3.22 8.22-4.482 3.684-12.154.791-16.315-.837-10.02-3.923-15.502-9.992-21.58-15.806-20.672-19.773-36.216-25.09-34.302-31.689.362-1.248.843-.795 7.739-7.084 6.807-6.207 8.13-8.282 10.045-7.849 2.884.652 1.655 5.754 6.447 11.038 4.247 4.682 9.72 5.645 11.38 5.937ZM143.694 131.812c1.22-4.366-.312-5.957 1.25-7.917 0 0 .629-.789 6.25-2.917-1.658-9.623-.416-11.25-.416-11.25 1.431-1.876 4.298-2.33 6.25-2.084 4.128.519 4.859 4.25 7.5 4.167 3.65-.116 8.026-7.42 6.667-13.75-1.108-5.165-5.886-9-7.083-8.334-1.188.66-5.463-2.25-7.084-1.667-1.107.398-6.319-.132-7.5.417-1.29.598-4.986 4.326-5.34 3.856-2.455-3.264-2.403-4.403-3.827-5.107-2.525-1.246-5.269 1.058-10 3.334-9.737 4.683-12.588 1.89-17.085 5.834-2.272 1.992-3.49 5.8-5.834 13.334-3.277 10.536-4.916 15.804-3.333 20.834 1.614 5.13 3.991 4.013 7.5 11.25 3.906 8.057 2.56 12.74 6.25 14.585 2.853 1.425 7.437.518 9.168-2.084 2.963-4.455-4.696-10.48-2.084-17.5 1.604-4.31 6.55-7.578 9.584-6.668 3.43 1.029 3.683 7.18 5.834 7.084 1.841-.082 3.12-4.656 3.333-5.417Z"/><path fill="#e6e6e6" d="M119.943 161.813c6.416-7.193 32.549.252 35.002 11.668 1.008 4.695-2.716 6.677-1.667 12.084 1.534 7.907 10.22 7.368 16.667 15.417 9.154 11.427-.276 22.598 10 41.669 2.197 4.075 4.048 7.51 7.918 10.834 8.88 7.627 17.146 5.011 21.668 12.083 3.381 5.29 1.992 11.808 1.666 13.334-1.334 6.262-4.951 7.787-7.5 12.918-4.24 8.536.56 14.802.833 25.001.341 12.76-6.44 30.448-20 36.252-15.236 6.52-33.611-4.279-42.503-15.001-5.305-6.398-6.846-12.3-9.167-19.584-10.374-32.557-16.234-29.612-24.168-55.42-9.069-29.502-10.852-64.066 0-75.003 1.439-1.45 5.397-4.8 7.917-10.834 3.392-8.119.462-12.197 3.334-15.418Z"/><path fill="#3f3d56" d="M323.709 189.636c1.577 10.357-5.566 20.066-15.923 21.644-10.357 1.577-20.067-5.566-21.644-15.923-1.577-10.358 5.566-20.067 15.923-21.644 10.357-1.578 20.067 5.566 21.644 15.923Zm-35.59 5.42c1.411 9.267 10.099 15.658 19.366 14.246s15.658-10.098 14.247-19.365-10.099-15.658-19.366-14.247-15.658 10.098-14.247 19.366Z"/><path fill="#3f3d56" d="M295.195 193.978c.818 5.365 5.847 9.065 11.212 8.248s9.065-5.846 8.248-11.212c-.817-5.365-5.846-9.065-11.211-8.248-5.366.817-9.066 5.847-8.249 11.212Z"/><path fill="#6c63ff" d="M380.757 32.786c2.365 15.533 16.925 26.244 32.458 23.879 15.533-2.365 26.245-16.926 23.88-32.459-2.366-15.532-16.927-26.244-32.46-23.879-15.532 2.366-26.244 16.926-23.878 32.459Z"/><path fill="#ffb6b6" d="M274.472 187.715c7.836-1.81 15.123.764 16.275 5.752 1.152 4.987-4.267 10.496-12.106 12.307a20.128 20.128 0 0 1-9.506.022l-33.3 7.255L233 199.876l32.917-8.009a20.13 20.13 0 0 1 8.555-4.152Z"/><path fill="#e6e6e6" d="M115.422 196.836c.206-.923 2.128-8.941 9.275-12.594 8.21-4.197 17.272.456 20.451 2.088 7.343 3.77 7.184 7.268 13.688 12.452 12.167 9.699 27.813 9.486 36.458 9.37 2.992-.041 12.233-.347 23.822-4.156 22.54-7.409 36.94-16.705 36.94-16.705l5.916 20.046s-17.454 19.289-38.381 28.079c-21.466 9.016-82.691 9.61-97.194 8.882-1.25-.062 18.633 1.857-.833-21.492-4.44-5.325-12.576-15.083-10.142-25.97Z"/></svg>