<svg xmlns="http://www.w3.org/2000/svg" version="1.1" xmlns:xlink="http://www.w3.org/1999/xlink" xmlns:svgjs="http://svgjs.com/svgjs" width="1440" height="560" preserveAspectRatio="none" viewBox="0 0 1440 560"><g mask="url(&quot;#SvgjsMask1377&quot;)" fill="none"><rect width="1440" height="560" x="0" y="0" fill="rgba(255, 255, 255, 1)"></rect><rect width="252" height="252" clip-path="url(&quot;#SvgjsClipPath1378&quot;)" x="272.69" y="365.21" fill="url(#SvgjsPattern1379)" transform="rotate(350.86, 398.69, 491.21)"></rect><path d="M209.61 109.34L213.84 121.43 202.98 128.21 207.21 140.29 196.35 147.07 200.58 159.16 189.71 165.94M202.07 106.68L206.3 118.77 195.43 125.55 199.66 137.64 188.8 144.42 193.03 156.51 182.17 163.29M194.52 104.03L198.75 116.12 187.89 122.9 192.12 134.99 181.25 141.77 185.48 153.85 174.62 160.64" stroke="rgba(255, 169, 77, 1)" stroke-width="1"></path><path d="M278.37 470.8L281.83 483.13 270.56 489.22 274.03 501.54 262.76 507.63 266.22 519.96 254.95 526.04M271 467.68L274.47 480.01 263.2 486.09 266.66 498.42 255.39 504.51 258.86 516.84 247.59 522.92" stroke="rgba(95, 61, 196, 1)" stroke-width="1" stroke-dasharray="2, 2"></path><rect width="144" height="144" clip-path="url(&quot;#SvgjsClipPath1380&quot;)" x="1026.12" y="401.98" fill="url(#SvgjsPattern1381)" transform="rotate(162.05, 1098.12, 473.98)"></rect><path d="M1400.97 166.82000000000002 L1514.8200000000002 305.88L1373.154622990479 321.0903770095209z" fill="rgba(95, 61, 196, 1)"></path><path d="M355.22 24.14L365.07 32.33 359.24 43.73 369.09 51.92 363.27 63.32 373.12 71.51 367.29 82.91" stroke="rgba(95, 61, 196, 1)" stroke-width="2.57"></path><circle r="79.84538437176327" cx="1240.77" cy="521.99" stroke="rgba(255, 169, 77, 1)" stroke-width="1.91" stroke-dasharray="2, 2"></circle><rect width="312" height="312" clip-path="url(&quot;#SvgjsClipPath1382&quot;)" x="187.95" y="44.87" fill="url(#SvgjsPattern1383)" transform="rotate(260.88, 343.95, 200.87)"></rect><path d="M731.6 53L741.82 60.71 736.55 72.37 746.78 80.08 741.5 91.75 751.73 99.46 746.45 111.13M723.85 54.98L734.07 62.69 728.8 74.35 739.02 82.06 733.75 93.73 743.97 101.44 738.7 113.11" stroke="rgba(95, 61, 196, 1)" stroke-width="2.63" stroke-dasharray="2, 2"></path><path d="M146.3 266.26L159.03 267.7 160.42 280.43 173.15 281.86 174.54 294.59 187.27 296.03 188.66 308.76M140.64 271.91L153.36 273.34 154.76 286.07 167.48 287.51 168.87 300.24 181.6 301.68 182.99 314.41M134.97 277.55L147.7 278.99 149.09 291.72 161.81 293.16 163.21 305.89 175.93 307.32 177.32 320.05" stroke="rgba(95, 61, 196, 1)" stroke-width="2.04" stroke-dasharray="3, 2"></path><rect width="216" height="216" clip-path="url(&quot;#SvgjsClipPath1384&quot;)" x="233.95" y="378.94" fill="url(#SvgjsPattern1385)" transform="rotate(222.65, 341.95, 486.94)"></rect><rect width="368.28" height="368.28" clip-path="url(&quot;#SvgjsClipPath1386&quot;)" x="-173.26" y="167.17" fill="url(#SvgjsPattern1387)" transform="rotate(320.3, 10.88, 351.31)"></rect></g><defs><mask id="SvgjsMask1377"><rect width="1440" height="560" fill="#ffffff"></rect></mask><pattern x="0" y="0" width="252" height="7" patternUnits="userSpaceOnUse" id="SvgjsPattern1379"><rect width="252" height="3.5" x="0" y="0" fill="rgba(95, 61, 196, 1)"></rect><rect width="252" height="3.5" x="0" y="3.5" fill="rgba(0, 0, 0, 0)"></rect></pattern><clipPath id="SvgjsClipPath1378"><circle r="63" cx="398.69" cy="491.21"></circle></clipPath><pattern x="0" y="0" width="6" height="6" patternUnits="userSpaceOnUse" id="SvgjsPattern1381"><path d="M3 1L3 5M1 3L5 3" stroke="rgba(95, 61, 196, 1)" fill="none" stroke-width="1"></path></pattern><clipPath id="SvgjsClipPath1380"><circle r="36" cx="1098.12" cy="473.98"></circle></clipPath><pattern x="0" y="0" width="6" height="6" patternUnits="userSpaceOnUse" id="SvgjsPattern1383"><path d="M3 1L3 5M1 3L5 3" stroke="rgba(255, 169, 77, 1)" fill="none" stroke-width="1.96"></path></pattern><clipPath id="SvgjsClipPath1382"><circle r="78" cx="343.95" cy="200.87"></circle></clipPath><pattern x="0" y="0" width="6" height="6" patternUnits="userSpaceOnUse" id="SvgjsPattern1385"><path d="M0 6L3 0L6 6" stroke="rgba(95, 61, 196, 1)" fill="none"></path></pattern><clipPath id="SvgjsClipPath1384"><circle r="54" cx="341.95" cy="486.94"></circle></clipPath><pattern x="0" y="0" width="368.28" height="6.82" patternUnits="userSpaceOnUse" id="SvgjsPattern1387"><rect width="368.28" height="3.41" x="0" y="0" fill="rgba(255, 169, 77, 1)"></rect><rect width="368.28" height="3.41" x="0" y="3.41" fill="rgba(0, 0, 0, 0)"></rect></pattern><clipPath id="SvgjsClipPath1386"><circle r="92.07" cx="10.88" cy="351.31"></circle></clipPath></defs></svg>