<svg xmlns="http://www.w3.org/2000/svg" version="1.1" xmlns:xlink="http://www.w3.org/1999/xlink" xmlns:svgjs="http://svgjs.com/svgjs" width="1440" height="560" preserveAspectRatio="none" viewBox="0 0 1440 560"><g mask="url(&quot;#SvgjsMask1039&quot;)" fill="none"><rect width="1440" height="560" x="0" y="0" fill="rgba(255, 255, 255, 1)"></rect><path d="M860.69 385.94L859.71 373.17 871.96 369.42 870.98 356.65 883.23 352.89 882.25 340.13 894.49 336.37M867.3 390.45L866.32 377.68 878.57 373.93 877.59 361.16 889.84 357.4 888.86 344.63 901.1 340.88M873.91 394.96L872.93 382.19 885.18 378.43 884.2 365.66 896.45 361.91 895.47 349.14 907.71 345.38" stroke="rgba(95, 61, 196, 1)" stroke-width="2.25" stroke-dasharray="3, 2"></path><rect width="120" height="120" clip-path="url(&quot;#SvgjsClipPath1040&quot;)" x="-41.05" y="27.28" fill="url(#SvgjsPattern1041)" transform="rotate(276.32, 18.95, 87.28)"></rect><circle r="59.269030614916105" cx="944.06" cy="377.68" stroke="#037b0b" stroke-width="1.57" stroke-dasharray="3, 3"></circle><path d="M345.1 526.54L335.6 517.96 341.89 506.8 332.39 498.22 338.68 487.06 329.18 478.47 335.47 467.32" stroke="rgba(255, 169, 77, 1)" stroke-width="1" stroke-dasharray="2, 2"></path><path d="M1096.4 248.12a5.6 5.6 0 1 0 3.76 10.55 5.6 5.6 0 1 0-3.76-10.55zM1101.77 263.19a5.6 5.6 0 1 0 3.76 10.55 5.6 5.6 0 1 0-3.76-10.55zM1107.14 278.26a5.6 5.6 0 1 0 3.76 10.55 5.6 5.6 0 1 0-3.76-10.55zM1112.51 293.33a5.6 5.6 0 1 0 3.76 10.55 5.6 5.6 0 1 0-3.76-10.55zM1070.59 223.34a5.6 5.6 0 1 0 3.76 10.55 5.6 5.6 0 1 0-3.76-10.55zM1075.96 238.41a5.6 5.6 0 1 0 3.76 10.55 5.6 5.6 0 1 0-3.76-10.55zM1081.33 253.49a5.6 5.6 0 1 0 3.76 10.55 5.6 5.6 0 1 0-3.76-10.55zM1086.7 268.56a5.6 5.6 0 1 0 3.76 10.55 5.6 5.6 0 1 0-3.76-10.55z" stroke="rgba(255, 169, 77, 1)" stroke-width="1" stroke-dasharray="4, 4"></path><path d="M1265.6299999999999 412.34000000000003 L1252.61 362.4L1279.0745563766948 367.41544362330507z" fill="#037b0b"></path><path d="M595.45 296.63L608.01 299.16 608.29 311.97 620.85 314.5 621.13 327.3 633.69 329.83 633.97 342.63M589.32 301.77L601.87 304.3 602.16 317.1 614.71 319.63 615 332.44 627.55 334.97 627.84 347.77M583.18 306.9L595.74 309.43 596.02 322.24 608.58 324.77 608.86 337.57 621.42 340.1 621.7 352.91" stroke="rgba(95, 61, 196, 1)" stroke-width="1.59" stroke-dasharray="2, 2"></path><rect width="360" height="360" clip-path="url(&quot;#SvgjsClipPath1042&quot;)" x="501.4" y="-99.34" fill="url(#SvgjsPattern1043)" transform="rotate(113.57, 681.4, 80.66)"></rect><circle r="65.61072639145316" cx="976.65" cy="47.1" stroke="rgba(95, 61, 196, 1)" stroke-width="1" stroke-dasharray="4, 4"></circle><path d="M1117.17 335.42L1128.07 328.7 1137.03 337.86 1147.93 331.13 1156.88 340.29 1167.78 333.57 1176.73 342.72M1116.2 343.36L1127.1 336.64 1136.05 345.8 1146.95 339.07 1155.9 348.23 1166.8 341.51 1175.76 350.66M1115.23 351.3L1126.13 344.58 1135.08 353.74 1145.98 347.01 1154.93 356.17 1165.83 349.45 1174.78 358.6" stroke="rgba(255, 169, 77, 1)" stroke-width="2.35" stroke-dasharray="3, 2"></path><path d="M1032.46 425.04L1036.55 437.18 1025.6 443.83 1029.69 455.96 1018.74 462.61 1022.83 474.75 1011.88 481.4" stroke="#037b0b" stroke-width="2.11"></path><path d="M295.39 329.9L295.43 317.09 307.93 314.32 307.97 301.51 320.47 298.74 320.51 285.93 333.01 283.16M301.62 334.91L301.66 322.11 314.16 319.33 314.2 306.53 326.7 303.75 326.74 290.95 339.24 288.17M307.86 339.93L307.89 327.12 320.4 324.35 320.43 311.54 332.94 308.77 332.97 295.96 345.48 293.19" stroke="rgba(95, 61, 196, 1)" stroke-width="1" stroke-dasharray="4, 4"></path></g><defs><mask id="SvgjsMask1039"><rect width="1440" height="560" fill="#ffffff"></rect></mask><pattern x="0" y="0" width="6" height="6" patternUnits="userSpaceOnUse" id="SvgjsPattern1041"><path d="M0 6L3 0L6 6" stroke="#037b0b" fill="none"></path></pattern><clipPath id="SvgjsClipPath1040"><circle r="30" cx="18.95" cy="87.28"></circle></clipPath><pattern x="0" y="0" width="6" height="6" patternUnits="userSpaceOnUse" id="SvgjsPattern1043"><path d="M0 6L3 0L6 6" stroke="rgba(255, 169, 77, 1)" fill="none"></path></pattern><clipPath id="SvgjsClipPath1042"><circle r="90" cx="681.4" cy="80.66"></circle></clipPath></defs></svg>