<svg xmlns="http://www.w3.org/2000/svg" version="1.1" xmlns:xlink="http://www.w3.org/1999/xlink" xmlns:svgjs="http://svgjs.com/svgjs" width="1440" height="560" preserveAspectRatio="none" viewBox="0 0 1440 560"><g mask="url(&quot;#SvgjsMask1015&quot;)" fill="none"><rect width="1440" height="560" x="0" y="0" fill="rgba(255, 255, 255, 1)"></rect><rect width="329.68" height="329.68" clip-path="url(&quot;#SvgjsClipPath1016&quot;)" x="866.65" y="312.07" fill="url(#SvgjsPattern1017)" transform="rotate(229.38, 1031.49, 476.91)"></rect><path d="M336.01 46.95L323.26 48.21 319.24 36.05 306.49 37.31 302.46 25.15 289.72 26.42 285.69 14.26M340.37 40.24L327.62 41.5 323.59 29.34 310.85 30.6 306.82 18.45 294.08 19.71 290.05 7.55" stroke="#e73635" stroke-width="1.74" stroke-dasharray="3, 2"></path><rect width="360" height="360" clip-path="url(&quot;#SvgjsClipPath1018&quot;)" x="938.36" y="-41.07" fill="url(#SvgjsPattern1019)" transform="rotate(70.59, 1118.36, 138.93)"></rect><path d="M1387.99 151.33 L1396.6200000000001 185L1411.3713724496608 149.09862755033916z" fill="#e73635"></path><rect width="120.96" height="120.96" clip-path="url(&quot;#SvgjsClipPath1020&quot;)" x="525.4" y="-0.37" fill="url(#SvgjsPattern1021)" transform="rotate(268.09, 585.88, 60.11)"></rect><rect width="180.48" height="180.48" clip-path="url(&quot;#SvgjsClipPath1022&quot;)" x="984.93" y="168.09" fill="url(#SvgjsPattern1023)" transform="rotate(149.8, 1075.17, 258.33)"></rect><path d="M1521.3400000000001 61.82 L1591.8200000000002 97.47L1506.6100923182298 129.61490768177043z" fill="#037b0b"></path><rect width="150.24" height="150.24" clip-path="url(&quot;#SvgjsClipPath1024&quot;)" x="778.87" y="228.43" fill="url(#SvgjsPattern1025)" transform="rotate(109.7, 853.99, 303.55)"></rect><rect width="60" height="60" clip-path="url(&quot;#SvgjsClipPath1026&quot;)" x="4.46" y="171.7" fill="url(#SvgjsPattern1027)" transform="rotate(44.16, 34.46, 201.7)"></rect><rect width="312" height="312" clip-path="url(&quot;#SvgjsClipPath1028&quot;)" x="1151.01" y="41.3" fill="url(#SvgjsPattern1029)" transform="rotate(101.86, 1307.01, 197.3)"></rect><path d="M1225.03 241.8 L1223.5 228.84L1217.2580798989661 242.32692010103375z" fill="#e73635"></path><path d="M956.58 476.72L952.7 488.93 939.94 487.83 936.07 500.04 923.31 498.94 919.44 511.14 906.68 510.05M952.13 470.07L948.26 482.27 935.5 481.18 931.63 493.38 918.87 492.28 915 504.49 902.24 503.39" stroke="#d3b714" stroke-width="1.66" stroke-dasharray="4, 4"></path></g><defs><mask id="SvgjsMask1015"><rect width="1440" height="560" fill="#ffffff"></rect></mask><pattern x="0" y="0" width="12.68" height="12.68" patternUnits="userSpaceOnUse" id="SvgjsPattern1017"><path d="M6.34 1L6.34 11.68M1 6.34L11.68 6.34" stroke="#d3b714" fill="none" stroke-width="2.89"></path></pattern><clipPath id="SvgjsClipPath1016"><circle r="82.42" cx="1031.49" cy="476.91"></circle></clipPath><pattern x="0" y="0" width="6" height="6" patternUnits="userSpaceOnUse" id="SvgjsPattern1019"><path d="M3 1L3 5M1 3L5 3" stroke="#d3b714" fill="none" stroke-width="1.29"></path></pattern><clipPath id="SvgjsClipPath1018"><circle r="90" cx="1118.36" cy="138.93"></circle></clipPath><pattern x="0" y="0" width="120.96" height="7.56" patternUnits="userSpaceOnUse" id="SvgjsPattern1021"><rect width="120.96" height="3.78" x="0" y="0" fill="#037b0b"></rect><rect width="120.96" height="3.78" x="0" y="3.78" fill="rgba(0, 0, 0, 0)"></rect></pattern><clipPath id="SvgjsClipPath1020"><circle r="30.24" cx="585.88" cy="60.11"></circle></clipPath><pattern x="0" y="0" width="11.28" height="11.28" patternUnits="userSpaceOnUse" id="SvgjsPattern1023"><path d="M5.64 1L5.64 10.28M1 5.64L10.28 5.64" stroke="#037b0b" fill="none" stroke-width="2.75"></path></pattern><clipPath id="SvgjsClipPath1022"><circle r="45.12" cx="1075.17" cy="258.33"></circle></clipPath><pattern x="0" y="0" width="150.24" height="12.52" patternUnits="userSpaceOnUse" id="SvgjsPattern1025"><rect width="150.24" height="6.26" x="0" y="0" fill="#d3b714"></rect><rect width="150.24" height="6.26" x="0" y="6.26" fill="rgba(0, 0, 0, 0)"></rect></pattern><clipPath id="SvgjsClipPath1024"><circle r="37.56" cx="853.99" cy="303.55"></circle></clipPath><pattern x="0" y="0" width="60" height="6" patternUnits="userSpaceOnUse" id="SvgjsPattern1027"><rect width="60" height="3" x="0" y="0" fill="#e73635"></rect><rect width="60" height="3" x="0" y="3" fill="rgba(0, 0, 0, 0)"></rect></pattern><clipPath id="SvgjsClipPath1026"><circle r="15" cx="34.46" cy="201.7"></circle></clipPath><pattern x="0" y="0" width="6" height="6" patternUnits="userSpaceOnUse" id="SvgjsPattern1029"><path d="M0 6L3 0L6 6" stroke="#e73635" fill="none"></path></pattern><clipPath id="SvgjsClipPath1028"><circle r="78" cx="1307.01" cy="197.3"></circle></clipPath></defs></svg>