<svg xmlns="http://www.w3.org/2000/svg" version="1.1" xmlns:xlink="http://www.w3.org/1999/xlink" xmlns:svgjs="http://svgjs.com/svgjs" width="1440" height="560" preserveAspectRatio="none" viewBox="0 0 1440 560"><g mask="url(&quot;#SvgjsMask1053&quot;)" fill="none"><rect width="1440" height="560" x="0" y="0" fill="rgba(255, 255, 255, 1)"></rect><rect width="204" height="204" clip-path="url(&quot;#SvgjsClipPath1054&quot;)" x="438.99" y="96.05" fill="url(#SvgjsPattern1055)" transform="rotate(346.56, 540.99, 198.05)"></rect><circle r="46.666666666666664" cx="173.29" cy="285.96" stroke="rgba(255, 169, 77, 1)" stroke-width="1.54" stroke-dasharray="4, 4"></circle><rect width="98.4" height="98.4" clip-path="url(&quot;#SvgjsClipPath1056&quot;)" x="516.68" y="463.37" fill="url(#SvgjsPattern1057)" transform="rotate(9.59, 565.88, 512.57)"></rect><path d="M573.51 152.08L586.11 154.39 586.62 167.19 599.21 169.5 599.72 182.3 612.32 184.61 612.83 197.41" stroke="#037b0b" stroke-width="1" stroke-dasharray="4, 4"></path><rect width="60" height="60" clip-path="url(&quot;#SvgjsClipPath1058&quot;)" x="632.73" y="136.1" fill="url(#SvgjsPattern1059)" transform="rotate(72.65, 662.73, 166.1)"></rect><rect width="252" height="252" clip-path="url(&quot;#SvgjsClipPath1060&quot;)" x="253.38" y="-27.39" fill="url(#SvgjsPattern1061)" transform="rotate(208.34, 379.38, 98.61)"></rect><rect width="300" height="300" clip-path="url(&quot;#SvgjsClipPath1062&quot;)" x="789.48" y="-111.93" fill="url(#SvgjsPattern1063)" transform="rotate(187.86, 939.48, 38.07)"></rect><rect width="168" height="168" clip-path="url(&quot;#SvgjsClipPath1064&quot;)" x="1354" y="434.93" fill="url(#SvgjsPattern1065)" transform="rotate(231.5, 1438, 518.93)"></rect><rect width="204" height="204" clip-path="url(&quot;#SvgjsClipPath1066&quot;)" x="390.02" y="400.52" fill="url(#SvgjsPattern1067)" transform="rotate(180.25, 492.02, 502.52)"></rect><rect width="334.88" height="334.88" clip-path="url(&quot;#SvgjsClipPath1068&quot;)" x="-41.02" y="-94.77" fill="url(#SvgjsPattern1069)" transform="rotate(173.93, 126.42, 72.67)"></rect><rect width="276" height="276" clip-path="url(&quot;#SvgjsClipPath1070&quot;)" x="1030" y="83.07" fill="url(#SvgjsPattern1071)" transform="rotate(283.25, 1168, 221.07)"></rect><circle r="46.666666666666664" cx="253.65" cy="63.93" stroke="rgba(95, 61, 196, 1)" stroke-width="1" stroke-dasharray="3, 3"></circle></g><defs><mask id="SvgjsMask1053"><rect width="1440" height="560" fill="#ffffff"></rect></mask><pattern x="0" y="0" width="204" height="6" patternUnits="userSpaceOnUse" id="SvgjsPattern1055"><rect width="204" height="3" x="0" y="0" fill="rgba(95, 61, 196, 1)"></rect><rect width="204" height="3" x="0" y="3" fill="rgba(0, 0, 0, 0)"></rect></pattern><clipPath id="SvgjsClipPath1054"><circle r="51" cx="540.99" cy="198.05"></circle></clipPath><pattern x="0" y="0" width="9.84" height="9.84" patternUnits="userSpaceOnUse" id="SvgjsPattern1057"><path d="M4.92 1L4.92 8.84M1 4.92L8.84 4.92" stroke="rgba(95, 61, 196, 1)" fill="none" stroke-width="1"></path></pattern><clipPath id="SvgjsClipPath1056"><circle r="24.6" cx="565.88" cy="512.57"></circle></clipPath><pattern x="0" y="0" width="6" height="6" patternUnits="userSpaceOnUse" id="SvgjsPattern1059"><path d="M0 6L3 0L6 6" stroke="rgba(255, 169, 77, 1)" fill="none"></path></pattern><clipPath id="SvgjsClipPath1058"><circle r="15" cx="662.73" cy="166.1"></circle></clipPath><pattern x="0" y="0" width="6" height="6" patternUnits="userSpaceOnUse" id="SvgjsPattern1061"><path d="M0 6L3 0L6 6" stroke="rgba(255, 169, 77, 1)" fill="none"></path></pattern><clipPath id="SvgjsClipPath1060"><circle r="63" cx="379.38" cy="98.61"></circle></clipPath><pattern x="0" y="0" width="6" height="6" patternUnits="userSpaceOnUse" id="SvgjsPattern1063"><path d="M0 6L3 0L6 6" stroke="rgba(95, 61, 196, 1)" fill="none"></path></pattern><clipPath id="SvgjsClipPath1062"><circle r="75" cx="939.48" cy="38.07"></circle></clipPath><pattern x="0" y="0" width="6" height="6" patternUnits="userSpaceOnUse" id="SvgjsPattern1065"><path d="M3 1L3 5M1 3L5 3" stroke="#037b0b" fill="none" stroke-width="1"></path></pattern><clipPath id="SvgjsClipPath1064"><circle r="42" cx="1438" cy="518.93"></circle></clipPath><pattern x="0" y="0" width="204" height="6" patternUnits="userSpaceOnUse" id="SvgjsPattern1067"><rect width="204" height="3" x="0" y="0" fill="rgba(255, 169, 77, 1)"></rect><rect width="204" height="3" x="0" y="3" fill="rgba(0, 0, 0, 0)"></rect></pattern><clipPath id="SvgjsClipPath1066"><circle r="51" cx="492.02" cy="502.52"></circle></clipPath><pattern x="0" y="0" width="7.28" height="7.28" patternUnits="userSpaceOnUse" id="SvgjsPattern1069"><path d="M0 7.28L3.64 0L7.28 7.28" stroke="rgba(95, 61, 196, 1)" fill="none"></path></pattern><clipPath id="SvgjsClipPath1068"><circle r="83.72" cx="126.42" cy="72.67"></circle></clipPath><pattern x="0" y="0" width="276" height="6" patternUnits="userSpaceOnUse" id="SvgjsPattern1071"><rect width="276" height="3" x="0" y="0" fill="rgba(255, 169, 77, 1)"></rect><rect width="276" height="3" x="0" y="3" fill="rgba(0, 0, 0, 0)"></rect></pattern><clipPath id="SvgjsClipPath1070"><circle r="69" cx="1168" cy="221.07"></circle></clipPath></defs></svg>