<svg xmlns="http://www.w3.org/2000/svg" version="1.1" xmlns:xlink="http://www.w3.org/1999/xlink" xmlns:svgjs="http://svgjs.com/svgjs" width="1440" height="560" preserveAspectRatio="none" viewBox="0 0 1440 560"><g mask="url(&quot;#SvgjsMask1105&quot;)" fill="none"><rect width="1440" height="560" x="0" y="0" fill="rgba(243, 243, 243, 1)"></rect><path d="M0,443.088C87.373,454.945,176.297,436.548,254.992,396.776C339.26,354.187,414.436,292.717,460.553,210.327C508.881,123.986,554.273,17.785,518.838,-74.598C483.448,-166.865,363.169,-186.446,285.118,-247.056C225.438,-293.4,181.977,-355.489,114.173,-388.838C36.263,-427.158,-48.441,-472.729,-132.914,-452.663C-218.208,-432.402,-266.208,-346.448,-327.626,-283.89C-393.497,-216.798,-489.527,-165.323,-505.918,-72.74C-522.36,20.128,-466.187,111.184,-411.128,187.756C-362.493,255.394,-284.854,289.17,-214.084,333.122C-144.523,376.323,-81.14,432.077,0,443.088" fill="#e4e4e4"></path><path d="M1440 1210.214C1558.189 1191.882 1640.383 1092.6109999999999 1736.856 1021.9169999999999 1826.815 955.9970000000001 1923.753 901.7470000000001 1986.643 809.644 2057.935 705.236 2120.055 588.807 2118.918 462.38599999999997 2117.707 327.804 2075.825 186.61900000000003 1980.1860000000001 91.92599999999999 1886.63-0.7039999999999509 1746.638-30.285999999999945 1615.126-36.42399999999998 1500.911-41.754999999999995 1401.296 22.754999999999995 1293.145 59.85899999999998 1190.6779999999999 95.01299999999998 1081.254 108.19999999999999 996.588 175.781 901.075 252.01999999999998 807.485 345.72 784.617 465.77 761.455 587.367 823.882 705.298 874.177 818.403 924.935 932.548 974.706 1053.087 1077.408 1124.205 1181.643 1196.384 1314.712 1229.6480000000001 1440 1210.214" fill="#ffffff"></path></g><defs><mask id="SvgjsMask1105"><rect width="1440" height="560" fill="#ffffff"></rect></mask></defs></svg>