<svg xmlns="http://www.w3.org/2000/svg" version="1.1" xmlns:xlink="http://www.w3.org/1999/xlink" xmlns:svgjs="http://svgjs.com/svgjs" width="1440" height="560" preserveAspectRatio="none" viewBox="0 0 1440 560"><g mask="url(&quot;#SvgjsMask1084&quot;)" fill="none"><rect width="1440" height="560" x="0" y="0" fill="rgba(239, 239, 239, 1)"></rect><path d="M0,425.422C80.575,436.57,155.272,390.818,228.783,355.993C312.341,316.409,420.385,293.612,457.24,208.815C494.118,123.966,425.361,32.256,409.07,-58.815C393.481,-145.96,429.26,-255.697,363.536,-315.006C296.544,-375.459,188.653,-325.456,99.338,-338.313C26.353,-348.819,-41.881,-404.36,-112.621,-383.551C-183.356,-362.744,-208.977,-277.12,-266.308,-230.757C-340.731,-170.572,-458.136,-158.519,-498.313,-71.647C-539.55,17.515,-535.682,140.404,-472.917,215.974C-409.19,292.702,-282.618,257.466,-191.421,297.856C-119.862,329.549,-77.525,414.696,0,425.422" fill="#e3e3e3"></path><path d="M1440 1048.7C1530.049 1032.892 1605.798 985.4870000000001 1688.776 947.1030000000001 1786.828 901.7470000000001 1921.091 898.271 1971.623 802.784 2021.9099999999999 707.759 1936.593 596.771 1930.989 489.406 1924.6109999999999 367.20500000000004 2005.357 230.937 1936.496 129.784 1868.34 29.66700000000003 1721.94 26.48599999999999 1602.439 6.784999999999968 1494.749-10.969000000000051 1387.526-5.9640000000000555 1281.994 21.881999999999948 1174.028 50.370000000000005 1055.362 79.344 988.5070000000001 168.779 922.691 256.823 957.126 379.776 934.108 487.264 908.844 605.241 807.131 716.971 846.706 830.948 886.186 944.6510000000001 1014.963 1004.081 1127.955 1045.551 1227.625 1082.132 1335.4279999999999 1067.057 1440 1048.7" fill="#fbfbfb"></path></g><defs><mask id="SvgjsMask1084"><rect width="1440" height="560" fill="#ffffff"></rect></mask></defs></svg>